<mxfile host="app.diagrams.net" agent="Mozilla/5.0 (Windows NT 10.0; Win64; x64) AppleWebKit/537.36 (KHTML, like Gecko) Chrome/136.0.0.0 Safari/537.36" version="27.0.2">
  <diagram name="Страница — 1" id="rhkfpI6YRWDNNklYZSnX">
    <mxGraphModel dx="2795" dy="1797" grid="1" gridSize="10" guides="1" tooltips="1" connect="1" arrows="1" fold="1" page="1" pageScale="1" pageWidth="827" pageHeight="1169" math="0" shadow="0">
      <root>
        <mxCell id="0" />
        <mxCell id="1" parent="0" />
        <mxCell id="xtGkHnXwTCl2XuvwOSNV-4" style="edgeStyle=orthogonalEdgeStyle;rounded=0;orthogonalLoop=1;jettySize=auto;html=1;exitX=0.5;exitY=1;exitDx=0;exitDy=0;entryX=0.5;entryY=0;entryDx=0;entryDy=0;" parent="1" source="xtGkHnXwTCl2XuvwOSNV-1" target="xtGkHnXwTCl2XuvwOSNV-2" edge="1">
          <mxGeometry relative="1" as="geometry" />
        </mxCell>
        <mxCell id="xtGkHnXwTCl2XuvwOSNV-5" style="edgeStyle=orthogonalEdgeStyle;rounded=0;orthogonalLoop=1;jettySize=auto;html=1;exitX=0.5;exitY=1;exitDx=0;exitDy=0;entryX=0.5;entryY=0;entryDx=0;entryDy=0;" parent="1" source="xtGkHnXwTCl2XuvwOSNV-1" target="xtGkHnXwTCl2XuvwOSNV-3" edge="1">
          <mxGeometry relative="1" as="geometry" />
        </mxCell>
        <mxCell id="xtGkHnXwTCl2XuvwOSNV-1" value="система управления доступом" style="rounded=0;whiteSpace=wrap;html=1;" parent="1" vertex="1">
          <mxGeometry x="330" y="70" width="140" height="60" as="geometry" />
        </mxCell>
        <mxCell id="xtGkHnXwTCl2XuvwOSNV-2" value="аутентифация" style="rounded=0;whiteSpace=wrap;html=1;" parent="1" vertex="1">
          <mxGeometry x="240" y="180" width="140" height="60" as="geometry" />
        </mxCell>
        <mxCell id="xtGkHnXwTCl2XuvwOSNV-3" value="регистрация" style="rounded=0;whiteSpace=wrap;html=1;" parent="1" vertex="1">
          <mxGeometry x="420" y="180" width="140" height="60" as="geometry" />
        </mxCell>
        <mxCell id="xtGkHnXwTCl2XuvwOSNV-38" style="edgeStyle=orthogonalEdgeStyle;rounded=0;orthogonalLoop=1;jettySize=auto;html=1;exitX=0.5;exitY=1;exitDx=0;exitDy=0;" parent="1" source="xtGkHnXwTCl2XuvwOSNV-6" target="xtGkHnXwTCl2XuvwOSNV-33" edge="1">
          <mxGeometry relative="1" as="geometry" />
        </mxCell>
        <mxCell id="xtGkHnXwTCl2XuvwOSNV-39" style="edgeStyle=orthogonalEdgeStyle;rounded=0;orthogonalLoop=1;jettySize=auto;html=1;exitX=0.5;exitY=1;exitDx=0;exitDy=0;entryX=0.5;entryY=0;entryDx=0;entryDy=0;" parent="1" source="xtGkHnXwTCl2XuvwOSNV-6" target="xtGkHnXwTCl2XuvwOSNV-36" edge="1">
          <mxGeometry relative="1" as="geometry" />
        </mxCell>
        <mxCell id="xtGkHnXwTCl2XuvwOSNV-40" style="edgeStyle=orthogonalEdgeStyle;rounded=0;orthogonalLoop=1;jettySize=auto;html=1;exitX=0.5;exitY=1;exitDx=0;exitDy=0;entryX=0.5;entryY=0;entryDx=0;entryDy=0;" parent="1" source="xtGkHnXwTCl2XuvwOSNV-6" target="xtGkHnXwTCl2XuvwOSNV-34" edge="1">
          <mxGeometry relative="1" as="geometry" />
        </mxCell>
        <mxCell id="xtGkHnXwTCl2XuvwOSNV-6" value="личный кабинет" style="rounded=0;whiteSpace=wrap;html=1;" parent="1" vertex="1">
          <mxGeometry x="-120" y="340" width="120" height="60" as="geometry" />
        </mxCell>
        <mxCell id="xtGkHnXwTCl2XuvwOSNV-8" value="&lt;strong data-end=&quot;145&quot; data-start=&quot;130&quot;&gt;Поиск туров по названию&lt;/strong&gt;" style="rounded=0;whiteSpace=wrap;html=1;" parent="1" vertex="1">
          <mxGeometry x="1230" y="690" width="120" height="60" as="geometry" />
        </mxCell>
        <mxCell id="xtGkHnXwTCl2XuvwOSNV-11" style="edgeStyle=orthogonalEdgeStyle;rounded=0;orthogonalLoop=1;jettySize=auto;html=1;exitX=0.5;exitY=1;exitDx=0;exitDy=0;entryX=0.5;entryY=0;entryDx=0;entryDy=0;" parent="1" source="xtGkHnXwTCl2XuvwOSNV-9" target="xtGkHnXwTCl2XuvwOSNV-10" edge="1">
          <mxGeometry relative="1" as="geometry" />
        </mxCell>
        <mxCell id="xtGkHnXwTCl2XuvwOSNV-13" style="edgeStyle=orthogonalEdgeStyle;rounded=0;orthogonalLoop=1;jettySize=auto;html=1;exitX=0.5;exitY=1;exitDx=0;exitDy=0;entryX=0.5;entryY=0;entryDx=0;entryDy=0;" parent="1" source="xtGkHnXwTCl2XuvwOSNV-9" target="xtGkHnXwTCl2XuvwOSNV-12" edge="1">
          <mxGeometry relative="1" as="geometry" />
        </mxCell>
        <mxCell id="xtGkHnXwTCl2XuvwOSNV-48" style="edgeStyle=orthogonalEdgeStyle;rounded=0;orthogonalLoop=1;jettySize=auto;html=1;exitX=0.5;exitY=1;exitDx=0;exitDy=0;entryX=0.5;entryY=0;entryDx=0;entryDy=0;" parent="1" source="xtGkHnXwTCl2XuvwOSNV-9" target="xtGkHnXwTCl2XuvwOSNV-37" edge="1">
          <mxGeometry relative="1" as="geometry" />
        </mxCell>
        <mxCell id="xtGkHnXwTCl2XuvwOSNV-9" value="SQLЗапроси" style="rounded=0;whiteSpace=wrap;html=1;" parent="1" vertex="1">
          <mxGeometry x="1250" y="410" width="120" height="60" as="geometry" />
        </mxCell>
        <mxCell id="xtGkHnXwTCl2XuvwOSNV-23" style="edgeStyle=orthogonalEdgeStyle;rounded=0;orthogonalLoop=1;jettySize=auto;html=1;exitX=0.5;exitY=1;exitDx=0;exitDy=0;entryX=0.5;entryY=0;entryDx=0;entryDy=0;" parent="1" source="xtGkHnXwTCl2XuvwOSNV-10" target="xtGkHnXwTCl2XuvwOSNV-20" edge="1">
          <mxGeometry relative="1" as="geometry" />
        </mxCell>
        <mxCell id="xtGkHnXwTCl2XuvwOSNV-25" style="edgeStyle=orthogonalEdgeStyle;rounded=0;orthogonalLoop=1;jettySize=auto;html=1;exitX=0.5;exitY=1;exitDx=0;exitDy=0;entryX=0.5;entryY=0;entryDx=0;entryDy=0;" parent="1" source="xtGkHnXwTCl2XuvwOSNV-10" target="xtGkHnXwTCl2XuvwOSNV-24" edge="1">
          <mxGeometry relative="1" as="geometry" />
        </mxCell>
        <mxCell id="SxVABVnt-EYmb7uC56JO-5" style="edgeStyle=orthogonalEdgeStyle;rounded=0;orthogonalLoop=1;jettySize=auto;html=1;exitX=0.5;exitY=1;exitDx=0;exitDy=0;entryX=0.5;entryY=0;entryDx=0;entryDy=0;" edge="1" parent="1" source="xtGkHnXwTCl2XuvwOSNV-10" target="SxVABVnt-EYmb7uC56JO-4">
          <mxGeometry relative="1" as="geometry" />
        </mxCell>
        <mxCell id="SxVABVnt-EYmb7uC56JO-20" style="edgeStyle=orthogonalEdgeStyle;rounded=0;orthogonalLoop=1;jettySize=auto;html=1;exitX=0.5;exitY=1;exitDx=0;exitDy=0;entryX=0.5;entryY=0;entryDx=0;entryDy=0;" edge="1" parent="1" source="xtGkHnXwTCl2XuvwOSNV-10" target="SxVABVnt-EYmb7uC56JO-19">
          <mxGeometry relative="1" as="geometry">
            <Array as="points">
              <mxPoint x="950" y="660" />
              <mxPoint x="610" y="660" />
            </Array>
          </mxGeometry>
        </mxCell>
        <mxCell id="xtGkHnXwTCl2XuvwOSNV-10" value="Фильтры и сортировка" style="rounded=0;whiteSpace=wrap;html=1;" parent="1" vertex="1">
          <mxGeometry x="890" y="530" width="120" height="60" as="geometry" />
        </mxCell>
        <mxCell id="xtGkHnXwTCl2XuvwOSNV-14" style="edgeStyle=orthogonalEdgeStyle;rounded=0;orthogonalLoop=1;jettySize=auto;html=1;exitX=0.5;exitY=1;exitDx=0;exitDy=0;entryX=0.5;entryY=0;entryDx=0;entryDy=0;" parent="1" source="xtGkHnXwTCl2XuvwOSNV-12" target="xtGkHnXwTCl2XuvwOSNV-8" edge="1">
          <mxGeometry relative="1" as="geometry" />
        </mxCell>
        <mxCell id="xtGkHnXwTCl2XuvwOSNV-12" value="Поискова система" style="rounded=0;whiteSpace=wrap;html=1;" parent="1" vertex="1">
          <mxGeometry x="1310" y="530" width="120" height="60" as="geometry" />
        </mxCell>
        <mxCell id="xtGkHnXwTCl2XuvwOSNV-15" style="edgeStyle=orthogonalEdgeStyle;rounded=0;orthogonalLoop=1;jettySize=auto;html=1;exitX=0.5;exitY=1;exitDx=0;exitDy=0;entryX=0.464;entryY=-0.022;entryDx=0;entryDy=0;entryPerimeter=0;" parent="1" source="xtGkHnXwTCl2XuvwOSNV-2" target="xtGkHnXwTCl2XuvwOSNV-6" edge="1">
          <mxGeometry relative="1" as="geometry" />
        </mxCell>
        <mxCell id="xtGkHnXwTCl2XuvwOSNV-17" style="edgeStyle=orthogonalEdgeStyle;rounded=0;orthogonalLoop=1;jettySize=auto;html=1;exitX=0.5;exitY=1;exitDx=0;exitDy=0;entryX=0.465;entryY=-0.043;entryDx=0;entryDy=0;entryPerimeter=0;" parent="1" source="xtGkHnXwTCl2XuvwOSNV-3" target="xtGkHnXwTCl2XuvwOSNV-6" edge="1">
          <mxGeometry relative="1" as="geometry" />
        </mxCell>
        <mxCell id="xtGkHnXwTCl2XuvwOSNV-18" value="&lt;span data-end=&quot;541&quot; data-start=&quot;531&quot;&gt;Регион&lt;/span&gt;" style="rounded=0;whiteSpace=wrap;html=1;" parent="1" vertex="1">
          <mxGeometry x="200" y="750" width="120" height="60" as="geometry" />
        </mxCell>
        <mxCell id="xtGkHnXwTCl2XuvwOSNV-19" value="&lt;span data-end=&quot;489&quot; data-start=&quot;479&quot;&gt;Страна&lt;/span&gt;" style="rounded=0;whiteSpace=wrap;html=1;" parent="1" vertex="1">
          <mxGeometry x="360" y="750" width="120" height="60" as="geometry" />
        </mxCell>
        <mxCell id="xtGkHnXwTCl2XuvwOSNV-21" style="edgeStyle=orthogonalEdgeStyle;rounded=0;orthogonalLoop=1;jettySize=auto;html=1;exitX=0.5;exitY=1;exitDx=0;exitDy=0;entryX=0.5;entryY=0;entryDx=0;entryDy=0;" parent="1" source="xtGkHnXwTCl2XuvwOSNV-20" target="xtGkHnXwTCl2XuvwOSNV-18" edge="1">
          <mxGeometry relative="1" as="geometry" />
        </mxCell>
        <mxCell id="xtGkHnXwTCl2XuvwOSNV-22" style="edgeStyle=orthogonalEdgeStyle;rounded=0;orthogonalLoop=1;jettySize=auto;html=1;exitX=0.5;exitY=1;exitDx=0;exitDy=0;" parent="1" source="xtGkHnXwTCl2XuvwOSNV-20" target="xtGkHnXwTCl2XuvwOSNV-19" edge="1">
          <mxGeometry relative="1" as="geometry" />
        </mxCell>
        <mxCell id="xtGkHnXwTCl2XuvwOSNV-20" value="Локацийни" style="rounded=0;whiteSpace=wrap;html=1;" parent="1" vertex="1">
          <mxGeometry x="310" y="640" width="120" height="60" as="geometry" />
        </mxCell>
        <mxCell id="xtGkHnXwTCl2XuvwOSNV-27" style="edgeStyle=orthogonalEdgeStyle;rounded=0;orthogonalLoop=1;jettySize=auto;html=1;exitX=0.5;exitY=1;exitDx=0;exitDy=0;entryX=0.5;entryY=0;entryDx=0;entryDy=0;" parent="1" source="xtGkHnXwTCl2XuvwOSNV-24" target="xtGkHnXwTCl2XuvwOSNV-26" edge="1">
          <mxGeometry relative="1" as="geometry" />
        </mxCell>
        <mxCell id="xtGkHnXwTCl2XuvwOSNV-24" value="Ценивой фильтрация" style="rounded=0;whiteSpace=wrap;html=1;" parent="1" vertex="1">
          <mxGeometry x="730" y="730" width="120" height="60" as="geometry" />
        </mxCell>
        <mxCell id="xtGkHnXwTCl2XuvwOSNV-26" value="Диапазон цены" style="rounded=0;whiteSpace=wrap;html=1;" parent="1" vertex="1">
          <mxGeometry x="730" y="850" width="120" height="60" as="geometry" />
        </mxCell>
        <mxCell id="xtGkHnXwTCl2XuvwOSNV-30" style="edgeStyle=orthogonalEdgeStyle;rounded=0;orthogonalLoop=1;jettySize=auto;html=1;exitX=0.5;exitY=1;exitDx=0;exitDy=0;entryX=0.5;entryY=0;entryDx=0;entryDy=0;" parent="1" source="xtGkHnXwTCl2XuvwOSNV-28" target="xtGkHnXwTCl2XuvwOSNV-29" edge="1">
          <mxGeometry relative="1" as="geometry" />
        </mxCell>
        <mxCell id="xtGkHnXwTCl2XuvwOSNV-28" value="длительности тура" style="rounded=0;whiteSpace=wrap;html=1;" parent="1" vertex="1">
          <mxGeometry x="920" y="740" width="120" height="60" as="geometry" />
        </mxCell>
        <mxCell id="xtGkHnXwTCl2XuvwOSNV-29" value="Диапазон тура" style="rounded=0;whiteSpace=wrap;html=1;" parent="1" vertex="1">
          <mxGeometry x="920" y="860" width="120" height="60" as="geometry" />
        </mxCell>
        <mxCell id="xtGkHnXwTCl2XuvwOSNV-31" style="edgeStyle=orthogonalEdgeStyle;rounded=0;orthogonalLoop=1;jettySize=auto;html=1;exitX=0.5;exitY=1;exitDx=0;exitDy=0;entryX=0.546;entryY=0.052;entryDx=0;entryDy=0;entryPerimeter=0;" parent="1" source="xtGkHnXwTCl2XuvwOSNV-10" target="xtGkHnXwTCl2XuvwOSNV-28" edge="1">
          <mxGeometry relative="1" as="geometry" />
        </mxCell>
        <mxCell id="xtGkHnXwTCl2XuvwOSNV-45" style="edgeStyle=orthogonalEdgeStyle;rounded=0;orthogonalLoop=1;jettySize=auto;html=1;exitX=0.5;exitY=1;exitDx=0;exitDy=0;" parent="1" source="xtGkHnXwTCl2XuvwOSNV-32" target="xtGkHnXwTCl2XuvwOSNV-35" edge="1">
          <mxGeometry relative="1" as="geometry" />
        </mxCell>
        <mxCell id="SxVABVnt-EYmb7uC56JO-18" style="edgeStyle=orthogonalEdgeStyle;rounded=0;orthogonalLoop=1;jettySize=auto;html=1;exitX=0.5;exitY=1;exitDx=0;exitDy=0;" edge="1" parent="1" source="xtGkHnXwTCl2XuvwOSNV-32" target="SxVABVnt-EYmb7uC56JO-17">
          <mxGeometry relative="1" as="geometry" />
        </mxCell>
        <mxCell id="xtGkHnXwTCl2XuvwOSNV-32" value="&lt;strong data-end=&quot;406&quot; data-start=&quot;384&quot;&gt;бронирования туров&lt;/strong&gt;" style="rounded=0;whiteSpace=wrap;html=1;" parent="1" vertex="1">
          <mxGeometry x="650" y="60" width="120" height="60" as="geometry" />
        </mxCell>
        <mxCell id="xtGkHnXwTCl2XuvwOSNV-33" value="История бронирований и заказов." style="rounded=0;whiteSpace=wrap;html=1;" parent="1" vertex="1">
          <mxGeometry x="-10" y="440" width="120" height="60" as="geometry" />
        </mxCell>
        <mxCell id="xtGkHnXwTCl2XuvwOSNV-34" value="Смена теми" style="rounded=0;whiteSpace=wrap;html=1;" parent="1" vertex="1">
          <mxGeometry x="-300" y="440" width="120" height="60" as="geometry" />
        </mxCell>
        <mxCell id="xtGkHnXwTCl2XuvwOSNV-35" value="Отзывы" style="rounded=0;whiteSpace=wrap;html=1;" parent="1" vertex="1">
          <mxGeometry x="580" y="180" width="120" height="60" as="geometry" />
        </mxCell>
        <mxCell id="xtGkHnXwTCl2XuvwOSNV-36" value="&lt;strong data-end=&quot;1115&quot; data-start=&quot;1099&quot;&gt;Чеки и счета&lt;/strong&gt; для клиентов." style="rounded=0;whiteSpace=wrap;html=1;" parent="1" vertex="1">
          <mxGeometry x="-160" y="440" width="120" height="60" as="geometry" />
        </mxCell>
        <mxCell id="xtGkHnXwTCl2XuvwOSNV-37" value="список доступных &lt;strong data-end=&quot;784&quot; data-start=&quot;775&quot;&gt;туров&lt;/strong&gt;" style="rounded=0;whiteSpace=wrap;html=1;" parent="1" vertex="1">
          <mxGeometry x="1060" y="530" width="120" height="60" as="geometry" />
        </mxCell>
        <mxCell id="xtGkHnXwTCl2XuvwOSNV-42" style="edgeStyle=orthogonalEdgeStyle;rounded=0;orthogonalLoop=1;jettySize=auto;html=1;exitX=0.5;exitY=1;exitDx=0;exitDy=0;entryX=0.5;entryY=0;entryDx=0;entryDy=0;" parent="1" source="xtGkHnXwTCl2XuvwOSNV-41" target="xtGkHnXwTCl2XuvwOSNV-1" edge="1">
          <mxGeometry relative="1" as="geometry" />
        </mxCell>
        <mxCell id="xtGkHnXwTCl2XuvwOSNV-43" style="edgeStyle=orthogonalEdgeStyle;rounded=0;orthogonalLoop=1;jettySize=auto;html=1;exitX=0.5;exitY=1;exitDx=0;exitDy=0;" parent="1" source="xtGkHnXwTCl2XuvwOSNV-41" target="xtGkHnXwTCl2XuvwOSNV-32" edge="1">
          <mxGeometry relative="1" as="geometry" />
        </mxCell>
        <mxCell id="xtGkHnXwTCl2XuvwOSNV-44" style="edgeStyle=orthogonalEdgeStyle;rounded=0;orthogonalLoop=1;jettySize=auto;html=1;exitX=0.5;exitY=1;exitDx=0;exitDy=0;entryX=0.5;entryY=0;entryDx=0;entryDy=0;" parent="1" source="xtGkHnXwTCl2XuvwOSNV-41" target="xtGkHnXwTCl2XuvwOSNV-9" edge="1">
          <mxGeometry relative="1" as="geometry">
            <Array as="points">
              <mxPoint x="550" y="30" />
              <mxPoint x="1310" y="30" />
            </Array>
          </mxGeometry>
        </mxCell>
        <mxCell id="SxVABVnt-EYmb7uC56JO-9" style="edgeStyle=orthogonalEdgeStyle;rounded=0;orthogonalLoop=1;jettySize=auto;html=1;exitX=0.5;exitY=1;exitDx=0;exitDy=0;entryX=0.5;entryY=0;entryDx=0;entryDy=0;" edge="1" parent="1" source="xtGkHnXwTCl2XuvwOSNV-41" target="SxVABVnt-EYmb7uC56JO-1">
          <mxGeometry relative="1" as="geometry" />
        </mxCell>
        <mxCell id="xtGkHnXwTCl2XuvwOSNV-41" value="начало" style="rounded=0;whiteSpace=wrap;html=1;" parent="1" vertex="1">
          <mxGeometry x="490" y="-50" width="120" height="60" as="geometry" />
        </mxCell>
        <mxCell id="SxVABVnt-EYmb7uC56JO-7" style="edgeStyle=orthogonalEdgeStyle;rounded=0;orthogonalLoop=1;jettySize=auto;html=1;exitX=0.5;exitY=1;exitDx=0;exitDy=0;entryX=0.5;entryY=0;entryDx=0;entryDy=0;" edge="1" parent="1" source="SxVABVnt-EYmb7uC56JO-1" target="SxVABVnt-EYmb7uC56JO-6">
          <mxGeometry relative="1" as="geometry" />
        </mxCell>
        <mxCell id="SxVABVnt-EYmb7uC56JO-8" style="edgeStyle=orthogonalEdgeStyle;rounded=0;orthogonalLoop=1;jettySize=auto;html=1;exitX=0.5;exitY=1;exitDx=0;exitDy=0;entryX=0.5;entryY=0;entryDx=0;entryDy=0;" edge="1" parent="1" source="SxVABVnt-EYmb7uC56JO-1" target="SxVABVnt-EYmb7uC56JO-2">
          <mxGeometry relative="1" as="geometry" />
        </mxCell>
        <mxCell id="SxVABVnt-EYmb7uC56JO-11" style="edgeStyle=orthogonalEdgeStyle;rounded=0;orthogonalLoop=1;jettySize=auto;html=1;exitX=0.5;exitY=1;exitDx=0;exitDy=0;" edge="1" parent="1" source="SxVABVnt-EYmb7uC56JO-1" target="SxVABVnt-EYmb7uC56JO-10">
          <mxGeometry relative="1" as="geometry" />
        </mxCell>
        <mxCell id="SxVABVnt-EYmb7uC56JO-13" style="edgeStyle=orthogonalEdgeStyle;rounded=0;orthogonalLoop=1;jettySize=auto;html=1;exitX=0.5;exitY=1;exitDx=0;exitDy=0;" edge="1" parent="1" source="SxVABVnt-EYmb7uC56JO-1" target="SxVABVnt-EYmb7uC56JO-12">
          <mxGeometry relative="1" as="geometry" />
        </mxCell>
        <mxCell id="SxVABVnt-EYmb7uC56JO-1" value="Услуг" style="rounded=0;whiteSpace=wrap;html=1;" vertex="1" parent="1">
          <mxGeometry x="-450" y="90" width="120" height="60" as="geometry" />
        </mxCell>
        <mxCell id="SxVABVnt-EYmb7uC56JO-2" value="Оформления загран паспор" style="rounded=0;whiteSpace=wrap;html=1;" vertex="1" parent="1">
          <mxGeometry x="-300" y="220" width="120" height="60" as="geometry" />
        </mxCell>
        <mxCell id="SxVABVnt-EYmb7uC56JO-16" style="edgeStyle=orthogonalEdgeStyle;rounded=0;orthogonalLoop=1;jettySize=auto;html=1;exitX=0.5;exitY=1;exitDx=0;exitDy=0;entryX=0.5;entryY=0;entryDx=0;entryDy=0;" edge="1" parent="1" source="SxVABVnt-EYmb7uC56JO-3" target="SxVABVnt-EYmb7uC56JO-14">
          <mxGeometry relative="1" as="geometry" />
        </mxCell>
        <mxCell id="SxVABVnt-EYmb7uC56JO-3" value="Спам реклама" style="rounded=0;whiteSpace=wrap;html=1;" vertex="1" parent="1">
          <mxGeometry x="860" y="60" width="120" height="60" as="geometry" />
        </mxCell>
        <mxCell id="SxVABVnt-EYmb7uC56JO-4" value="Гяряций тури" style="rounded=0;whiteSpace=wrap;html=1;" vertex="1" parent="1">
          <mxGeometry x="130" y="640" width="120" height="60" as="geometry" />
        </mxCell>
        <mxCell id="SxVABVnt-EYmb7uC56JO-6" value="Виза" style="rounded=0;whiteSpace=wrap;html=1;" vertex="1" parent="1">
          <mxGeometry x="-550" y="220" width="120" height="60" as="geometry" />
        </mxCell>
        <mxCell id="SxVABVnt-EYmb7uC56JO-10" value="Оформления страховку" style="rounded=0;whiteSpace=wrap;html=1;" vertex="1" parent="1">
          <mxGeometry x="-720" y="220" width="120" height="60" as="geometry" />
        </mxCell>
        <mxCell id="SxVABVnt-EYmb7uC56JO-12" value="Экскурсий" style="rounded=0;whiteSpace=wrap;html=1;" vertex="1" parent="1">
          <mxGeometry x="-900" y="220" width="120" height="60" as="geometry" />
        </mxCell>
        <mxCell id="SxVABVnt-EYmb7uC56JO-14" value="Отправка гяряцих путевок" style="rounded=0;whiteSpace=wrap;html=1;" vertex="1" parent="1">
          <mxGeometry x="860" y="160" width="120" height="60" as="geometry" />
        </mxCell>
        <mxCell id="SxVABVnt-EYmb7uC56JO-15" style="edgeStyle=orthogonalEdgeStyle;rounded=0;orthogonalLoop=1;jettySize=auto;html=1;exitX=0.5;exitY=1;exitDx=0;exitDy=0;entryX=0.556;entryY=0.056;entryDx=0;entryDy=0;entryPerimeter=0;" edge="1" parent="1" source="xtGkHnXwTCl2XuvwOSNV-41" target="SxVABVnt-EYmb7uC56JO-3">
          <mxGeometry relative="1" as="geometry" />
        </mxCell>
        <mxCell id="SxVABVnt-EYmb7uC56JO-17" value="Симуляция покупки путевки" style="rounded=0;whiteSpace=wrap;html=1;" vertex="1" parent="1">
          <mxGeometry x="707" y="180" width="120" height="60" as="geometry" />
        </mxCell>
        <mxCell id="SxVABVnt-EYmb7uC56JO-19" value="Фильтрация По сезону" style="rounded=0;whiteSpace=wrap;html=1;" vertex="1" parent="1">
          <mxGeometry x="550" y="730" width="120" height="60" as="geometry" />
        </mxCell>
      </root>
    </mxGraphModel>
  </diagram>
</mxfile>
